# xmcd CD database file
#
# Track frame offsets:
#	150
#	17120
#	38603
#	60530
#	82230
#	94409
#	116416
#	138520
#	159430
#	172533
#
# Disc length: 2828 seconds
#
# Revision: 9
# Processed by: cddbd v1.4PL0 Copyright (c) Steve Scherf et al.
# Submitted via: CDex 1.40Beta9
#
DISCID=760b0a0a
DTITLE=Marco Wagner - Poet, Painter and Cowboy
DYEAR=1994
DGENRE=Pop
TTITLE0=Miles from home
TTITLE1=Poet, painter and cowboy
TTITLE2=Hard days in Jackson
TTITLE3=Tohellyouride
TTITLE4=Ode to Boston
TTITLE5=Unexpected gift
TTITLE6=Old friend
TTITLE7=God made you just for me to love
TTITLE8=You never know
TTITLE9=Song for Enrique
EXTD=YEAR: 1994 ID3G: 13
EXTT0=
EXTT1=
EXTT2=
EXTT3=
EXTT4=
EXTT5=
EXTT6=
EXTT7=
EXTT8=
EXTT9=
PLAYORDER=
